{
  "accessors": [
    {
      "bufferView": 2,
      "componentType": 5126,
      "count": 11509,
      "max": [
        13.78367805480957,
        15.561079025268555,
        27.46473503112793
      ],
      "min": [
        -13.78367805480957,
        -15.561079025268555,
        -27.46473503112793
      ],
      "type": "VEC3"
    },
    {
      "bufferView": 2,
      "byteOffset": 138108,
      "componentType": 5126,
      "count": 11509,
      "type": "VEC3"
    },
    {
      "bufferView": 3,
      "componentType": 5126,
      "count": 11509,
      "type": "VEC4"
    },
    {
      "bufferView": 1,
      "componentType": 5126,
      "count": 11509,
      "type": "VEC2"
    },
    {
      "bufferView": 1,
      "byteOffset": 92072,
      "componentType": 5126,
      "count": 11509,
      "type": "VEC2"
    },
    {
      "bufferView": 1,
      "byteOffset": 184144,
      "componentType": 5126,
      "count": 11509,
      "type": "VEC2"
    },
    {
      "bufferView": 1,
      "byteOffset": 276216,
      "componentType": 5126,
      "count": 11509,
      "type": "VEC2"
    },
    {
      "bufferView": 1,
      "byteOffset": 368288,
      "componentType": 5126,
      "count": 11509,
      "type": "VEC2"
    },
    {
      "bufferView": 0,
      "componentType": 5125,
      "count": 64176,
      "type": "SCALAR"
    }
  ],
  "asset": {
    "generator": "fab-model-conversion",
    "version": "2.0"
  },
  "bufferViews": [
    {
      "buffer": 0,
      "byteLength": 256704,
      "target": 34963
    },
    {
      "buffer": 0,
      "byteLength": 460360,
      "byteOffset": 256704,
      "byteStride": 8,
      "target": 34962
    },
    {
      "buffer": 0,
      "byteLength": 276216,
      "byteOffset": 717064,
      "byteStride": 12,
      "target": 34962
    },
    {
      "buffer": 0,
      "byteLength": 184144,
      "byteOffset": 993280,
      "byteStride": 16,
      "target": 34962
    }
  ],
  "buffers": [
    {
      "byteLength": 1177424,
      "uri": "scene.bin"
    }
  ],
  "images": [
    {
      "uri": "textures/barstool_baseColor.png"
    },
    {
      "uri": "textures/barstool_metallicRoughness.png"
    },
    {
      "uri": "textures/barstool_normal.png"
    }
  ],
  "materials": [
    {
      "doubleSided": true,
      "name": "barstool",
      "normalTexture": {
        "index": 2
      },
      "occlusionTexture": {
        "index": 1
      },
      "pbrMetallicRoughness": {
        "baseColorTexture": {
          "index": 0
        },
        "metallicRoughnessTexture": {
          "index": 1
        }
      }
    }
  ],
  "meshes": [
    {
      "name": "barstool_barstool_0",
      "primitives": [
        {
          "attributes": {
            "NORMAL": 1,
            "POSITION": 0,
            "TANGENT": 2,
            "TEXCOORD_0": 3,
            "TEXCOORD_1": 4,
            "TEXCOORD_2": 5,
            "TEXCOORD_3": 6,
            "TEXCOORD_4": 7
          },
          "indices": 8,
          "material": 0,
          "mode": 4
        }
      ]
    }
  ],
  "nodes": [
    {
      "children": [
        1
      ],
      "matrix": [
        1.0,
        0.0,
        0.0,
        0.0,
        0.0,
        2.220446049250313e-16,
        -1.0,
        0.0,
        0.0,
        1.0,
        2.220446049250313e-16,
        0.0,
        0.0,
        0.0,
        0.0,
        1.0
      ],
      "name": "Sketchfab_model"
    },
    {
      "children": [
        2
      ],
      "matrix": [
        0.009999999776482582,
        0.0,
        0.0,
        0.0,
        0.0,
        0.0,
        0.009999999776482582,
        0.0,
        0.0,
        -0.009999999776482582,
        0.0,
        0.0,
        0.0,
        0.0,
        0.0,
        1.0
      ],
      "name": "barstool.fbx"
    },
    {
      "children": [
        3
      ],
      "name": "RootNode"
    },
    {
      "children": [
        4
      ],
      "matrix": [
        1.0,
        0.0,
        0.0,
        0.0,
        0.0,
        2.220446049250313e-16,
        -1.0,
        0.0,
        0.0,
        1.0,
        2.220446049250313e-16,
        0.0,
        0.0,
        27.46489143371582,
        -3.814697265625e-06,
        1.0
      ],
      "name": "barstool"
    },
    {
      "mesh": 0,
      "name": "barstool_barstool_0"
    }
  ],
  "samplers": [
    {
      "magFilter": 9729,
      "minFilter": 9987,
      "wrapS": 10497,
      "wrapT": 10497
    }
  ],
  "scene": 0,
  "scenes": [
    {
      "name": "Sketchfab_Scene",
      "nodes": [
        0
      ]
    }
  ],
  "textures": [
    {
      "sampler": 0,
      "source": 0
    },
    {
      "sampler": 0,
      "source": 1
    },
    {
      "sampler": 0,
      "source": 2
    }
  ]
}
